<svg width="16" height="16" viewBox="0 0 16 16" fill="none" xmlns="http://www.w3.org/2000/svg">
<path d="M2.66666 8.66666C2.38888 8.66666 2.19444 8.55553 2.08333 8.33333C1.98333 8.11113 1.98333 7.88886 2.08333 7.66666C2.19444 7.44446 2.38888 7.33333 2.66666 7.33333H13.3333C13.6111 7.33333 13.8 7.44446 13.9 7.66666C14.0111 7.88886 14.0111 8.11113 13.9 8.33333C13.8 8.55553 13.6111 8.66666 13.3333 8.66666H2.66666ZM7.33333 2.66666C7.33333 2.38888 7.44446 2.2 7.66666 2.1C7.88886 1.98888 8.11113 1.98888 8.33333 2.1C8.55553 2.2 8.66666 2.38888 8.66666 2.66666V13.3333C8.66666 13.6111 8.55553 13.8055 8.33333 13.9167C8.11113 14.0167 7.88886 14.0167 7.66666 13.9167C7.44446 13.8055 7.33333 13.6111 7.33333 13.3333V2.66666Z" fill="#475467"/>
</svg>
